<?xml version="1.0" encoding="UTF-8"?>
<svg width="15px" height="13px" viewBox="0 0 15 13" version="1.1" xmlns="http://www.w3.org/2000/svg" xmlns:xlink="http://www.w3.org/1999/xlink">
    <!-- Generator: Sketch 50.2 (55047) - http://www.bohemiancoding.com/sketch -->
    <title>Shape</title>
    <desc>Created with Sketch.</desc>
    <defs></defs>
    <g id="Page-2" stroke="none" stroke-width="1" fill="none" fill-rule="evenodd">
        <g id="1b.-FaxMaker-PPC-Landing-Page-(Buttons-Orange)" transform="translate(-1160.000000, -1921.000000)" fill="#307FE2" fill-rule="nonzero">
            <g id="arrow-pointing-to-right-(3)" transform="translate(1160.000000, 1921.000000)">
                <path d="M14.533457,5.9112957 L8.94205914,0.319897849 C8.60091398,-0.0212473118 8.04764516,-0.0212473118 7.7065,0.319897849 C7.36528495,0.661112903 7.36528495,1.21424194 7.7065,1.55545699 L11.8064624,5.65541935 L0.873655914,5.65541935 C0.391188172,5.65541935 0,6.04660753 0,6.52907527 C0,7.01147312 0.391188172,7.40273118 0.873655914,7.40273118 L11.8064624,7.40273118 L7.70663978,11.5026935 C7.36542473,11.8439086 7.36542473,12.3970376 7.70663978,12.7382527 C7.87717742,12.9087204 8.10083333,12.994129 8.32441935,12.994129 C8.54800538,12.994129 8.7715914,12.9087204 8.94219892,12.7382527 L14.533457,7.14685484 C14.874672,6.80563978 14.874672,6.25251075 14.533457,5.9112957 Z" id="Shape"></path>
            </g>
        </g>
    </g>
</svg>