<?xml version="1.0" encoding="utf-8"?>
<!-- Generator: Adobe Illustrator 22.1.0, SVG Export Plug-In . SVG Version: 6.00 Build 0)  -->
<svg version="1.1" id="Layer_1" xmlns="http://www.w3.org/2000/svg" xmlns:xlink="http://www.w3.org/1999/xlink" x="0px" y="0px"
	 viewBox="0 0 45 41" style="enable-background:new 0 0 45 41;" xml:space="preserve">
<style type="text/css">
	.st0{fill:#0079FF;}
	.st1{fill:#004F80;}
</style>
<title>Group 4</title>
<desc>Created with Sketch.</desc>
<g>
	<path class="st0" d="M22.5,13.4l2.1-4.2c0.2-0.4,0.1-1-0.3-1.3c-0.2-0.1-0.4-0.2-0.6-0.2c-0.3,0-0.5,0.1-0.7,0.3l-7.5,7.5
		c-0.2,0.2-0.3,0.5-0.3,0.8c0,0.3,0.2,0.6,0.4,0.7l6.8,4.5l-2.1,4.2c-0.2,0.4-0.1,1,0.3,1.3c0.4,0.3,0.9,0.2,1.3-0.1l7.5-7.5
		c0.2-0.2,0.3-0.5,0.3-0.8c0-0.3-0.2-0.6-0.4-0.7L22.5,13.4z M24.8,21.3L24.7,21c-0.1-0.2-0.2-0.4-0.4-0.5l-6.5-4.3l2.4-2.4l0.1,0.4
		c0.1,0.2,0.2,0.4,0.4,0.5l6.5,4.3L24.8,21.3z"/>
	<path class="st0" d="M42.7,15.3h-2.6c-0.6,0-1,0.5-1,1c0,0.6,0.5,1,1,1h2.6c0.6,0,1-0.5,1-1C43.7,15.7,43.2,15.3,42.7,15.3z"/>
	<path class="st0" d="M4.9,15.3H2.3c-0.6,0-1,0.5-1,1c0,0.6,0.5,1,1,1h2.6c0.6,0,1-0.5,1-1C5.9,15.7,5.5,15.3,4.9,15.3z"/>
	<path class="st0" d="M35.6,4.6l1.8-1.8c0.4-0.4,0.4-1,0-1.4c-0.2-0.2-0.5-0.3-0.7-0.3S36.2,1.2,36,1.4l-1.8,1.8
		c-0.2,0.2-0.3,0.4-0.3,0.7s0.1,0.5,0.3,0.7C34.6,5,35.2,5,35.6,4.6z"/>
	<path class="st0" d="M10.1,27.7c-0.3,0-0.5,0.1-0.7,0.3l-1.8,1.8c-0.2,0.2-0.3,0.4-0.3,0.7s0.1,0.5,0.3,0.7
		c0.2,0.2,0.4,0.3,0.7,0.3s0.5-0.1,0.7-0.3l1.8-1.8c0.4-0.4,0.4-1,0-1.4C10.6,27.8,10.3,27.7,10.1,27.7z"/>
	<path class="st0" d="M9.4,4.6c0.4,0.4,1,0.4,1.4,0c0.4-0.4,0.4-1,0-1.4L9,1.4C8.8,1.2,8.6,1.1,8.3,1.1C8,1.1,7.8,1.2,7.6,1.4
		c-0.4,0.4-0.4,1,0,1.4L9.4,4.6z"/>
	<path class="st0" d="M35.6,28c-0.2-0.2-0.5-0.3-0.7-0.3s-0.5,0.1-0.7,0.3c-0.2,0.2-0.3,0.4-0.3,0.7s0.1,0.5,0.3,0.7l1.8,1.8
		c0.4,0.4,1,0.4,1.4,0c0.2-0.2,0.3-0.4,0.3-0.7s-0.1-0.5-0.3-0.7L35.6,28z"/>
	<path class="st1" d="M31.1,5.8C27.9,3.2,23.7,2.2,19.6,3c-5.3,1.1-9.5,5.5-10.4,10.9c-0.9,5.3,1.2,10.4,5.6,13.5
		c1.1,0.8,1.8,2.1,1.8,3.7v0.3c0,1.5,0.9,2.8,2.3,3.3l0.2,0.1v1.6c0,1.9,1.6,3.5,3.5,3.5s3.5-1.6,3.5-3.5v-1.6l0.2-0.1
		c1.4-0.5,2.3-1.8,2.3-3.3V31c0-1.4,0.8-2.8,2.1-3.8c3.5-2.6,5.5-6.5,5.5-10.9C36.1,12.2,34.2,8.4,31.1,5.8z M24,36.4
		c0,0.8-0.7,1.5-1.5,1.5c-0.8,0-1.5-0.7-1.5-1.5v-1.5h3V36.4z M29.4,25.5c-1.8,1.4-2.9,3.3-2.9,5.4v0.4c0,0.8-0.7,1.5-1.5,1.5h-5
		c-0.8,0-1.5-0.7-1.5-1.5V31c0-2.2-1-4.2-2.6-5.3c-3.7-2.6-5.5-7-4.7-11.5C11.9,9.7,15.5,6,20,5c3.5-0.7,7.1,0.1,9.8,2.3
		c2.7,2.2,4.3,5.5,4.3,9C34,20,32.4,23.3,29.4,25.5z"/>
</g>
</svg>
