<?xml version="1.0" encoding="utf-8"?>
<!-- Generator: Adobe Illustrator 22.1.0, SVG Export Plug-In . SVG Version: 6.00 Build 0)  -->
<svg version="1.1" id="Layer_1" xmlns="http://www.w3.org/2000/svg" xmlns:xlink="http://www.w3.org/1999/xlink" x="0px" y="0px"
	 viewBox="0 0 17 17" style="enable-background:new 0 0 17 17;" xml:space="preserve">
<style type="text/css">
	.st0{fill:#464950;}
</style>
<title>Group 14</title>
<desc>Created with Sketch.</desc>
<g>
	<path class="st0" d="M8.5,0.9c-4.2,0-7.6,3.4-7.6,7.6c0,4.2,3.4,7.6,7.6,7.6s7.6-3.4,7.6-7.6C16.1,4.3,12.7,0.9,8.5,0.9z M8.5,14.9
		C5,14.9,2.1,12,2.1,8.5S5,2.1,8.5,2.1c3.5,0,6.4,2.9,6.4,6.4S12,14.9,8.5,14.9z"/>
	<path class="st0" d="M11.8,9.6c-0.3-0.2-0.7-0.1-0.9,0.2c-0.5,0.7-1.3,1.1-2.2,1.1c-1.4,0-2.6-1.1-2.6-2.4s1.2-2.4,2.6-2.4
		c0.9,0,1.7,0.4,2.2,1.1c0.2,0.3,0.6,0.3,0.9,0.2C11.9,7.2,12,7.1,12,6.9c0-0.2,0-0.3-0.1-0.4c-0.7-1-1.9-1.6-3.2-1.6
		c-2.1,0-3.9,1.6-3.9,3.6s1.7,3.6,3.9,3.6c1.3,0,2.5-0.6,3.2-1.7c0.1-0.1,0.1-0.3,0.1-0.4C12.1,9.8,12,9.7,11.8,9.6z"/>
</g>
</svg>
