<?xml version="1.0" encoding="UTF-8"?>
<svg width="149px" height="20px" viewBox="0 0 149 20" version="1.1" xmlns="http://www.w3.org/2000/svg" xmlns:xlink="http://www.w3.org/1999/xlink">
    <!-- Generator: Sketch 50.2 (55047) - http://www.bohemiancoding.com/sketch -->
    <title>Group 2</title>
    <desc>Created with Sketch.</desc>
    <defs></defs>
    <g id="Page-2" stroke="none" stroke-width="1" fill="none" fill-rule="evenodd">
        <g id="1a.-FaxMaker-PPC-Landing-Page" transform="translate(-193.000000, -46.000000)" fill="#FFFFFF">
            <g id="Group-2" transform="translate(193.000000, 46.000000)">
                <path d="M33.4205231,11.064 C33.4205231,11.064 35.1457538,2.26646154 35.2703692,1.63076923 C35.3820615,1.06030769 34.9229846,0.937846154 34.7691385,0.937846154 L30.6512923,0.937846154 C30.1531385,0.937846154 29.9020615,1.31415385 29.8611385,1.52123077 C29.8340615,1.65723077 26.7829846,17.2815385 26.5383692,18.5116923 L26.4752923,18.8313846 C26.4291385,19.0683077 26.6734462,19.4138462 26.9500615,19.4138462 L31.1097538,19.4138462 C31.7174462,19.4138462 31.9217538,18.7744615 31.9217538,18.7744615 L33.4205231,11.064 Z" id="Fill-1"></path>
                <path d="M27.9085846,1.58926154 C27.8165846,2.05572308 27.3861231,4.2468 27.2716615,4.83203077 C27.1565846,5.41787692 26.5064308,5.41787692 26.5064308,5.41787692 L23.4685846,5.41787692 C22.8701231,5.41787692 22.7522769,6.01849231 22.7522769,6.01849231 C22.7522769,6.01849231 22.4541231,7.53695385 22.4199692,7.71172308 C22.3747385,7.95572308 22.6098154,8.29418462 22.9079692,8.29418462 L26.0996615,8.29418462 C26.4245846,8.29418462 26.6553538,8.53572308 26.5882769,8.88126154 C26.5202769,9.22741538 26.0833538,11.4643385 26.0113538,11.8237231 C25.9384308,12.1837231 25.6098154,12.3898769 25.3205846,12.3898769 C25.1319692,12.3898769 22.5888923,12.3874154 22.1116615,12.3898769 C21.6338154,12.3904923 21.4144308,12.8403385 21.3870462,12.9846462 C21.3581231,13.1283385 20.2707385,18.6717231 20.2402769,18.8271077 C20.2101231,18.9828 20.1242769,19.4203385 19.5252,19.4203385 C18.9482769,19.4209538 15.7925846,19.4209538 15.2067385,19.4215692 C14.6212,19.4215692 14.7319692,18.8535692 14.7319692,18.8535692 C14.7319692,18.8535692 18.0882769,1.65910769 18.1178154,1.50864615 C18.1495077,1.29233846 18.4199692,0.9668 18.8261231,0.9668 C19.2310462,0.9668 26.9218154,0.968953846 27.4092,0.968953846 C27.5442769,0.968953846 27.9996615,1.12403077 27.9085846,1.58926154" id="Fill-3"></path>
                <path d="M10.8352615,6.39633846 C11.4777231,6.2268 14.1355692,5.43910769 14.6915692,5.26833846 C15.2961846,5.08495385 15.2457231,4.81572308 15.0318769,3.97572308 C14.6121846,2.63356923 13.5497231,0.6908 9.73433846,0.693261538 C4.22110769,0.825876923 1.56295385,4.4708 0.344184615,10.0298769 C-0.875815385,15.5935692 1.1808,19.5437231 5.97341538,19.5748 C8.92787692,19.5621846 10.8663385,17.9184923 11.5580308,17.0815692 C12.2497231,16.2455692 13.8611077,14.4821846 14.8078769,9.27726154 C14.9026462,8.71110769 14.4924923,8.29418462 13.7961846,8.29418462 L8.92664615,8.29418462 C8.07064615,8.29418462 7.99495385,9.15941538 7.99495385,9.15941538 C7.99495385,9.15941538 7.70849231,10.6151077 7.57310769,11.3061846 C7.43741538,11.9978769 7.59556923,12.1692615 8.4728,12.1692615 C9.27926154,12.1692615 9.28818462,12.1415692 9.27926154,12.1692615 C8.76141538,13.7077231 8.17526154,14.2021846 8.17526154,14.2021846 C8.17526154,14.2021846 7.63341538,14.8098769 6.80572308,14.8175692 C5.97772308,14.8249538 5.54572308,14.3129538 5.38264615,13.7495692 C5.21926154,13.1846462 5.30787692,11.3477231 5.65003077,9.79664615 C5.99218462,8.24618462 6.22572308,6.8868 6.92326154,5.86741538 C7.62049231,4.84587692 8.5128,4.80864615 8.68603077,4.81387692 C10.5448,4.82433846 9.85987692,6.65233846 10.8352615,6.39633846" id="Fill-5"></path>
                <polygon id="Fill-8" points="43.3780923 0.984676923 54.1805538 0.984676923 53.5242462 4.34867692 46.6870154 4.34867692 45.8393231 8.6696 52.2664 8.6696 51.6097846 12.0059077 45.2104 12.0059077 43.8156308 19.4172923 39.8774769 19.4172923"></polygon>
                <path d="M61.9468923,8.83353846 C61.6459692,8.77876923 61.2632,8.72430769 60.8801231,8.72430769 C58.3370462,8.72430769 56.4770462,11.8418462 56.4770462,14.3304615 C56.4770462,15.6433846 56.9967385,16.5458462 58.0905846,16.5458462 C59.2668923,16.5458462 60.7161231,15.2058462 61.3179692,11.924 L61.9468923,8.83353846 Z M60.7982769,19.4172308 C60.8253538,18.6243077 60.9078154,17.7218462 60.9896615,16.7646154 L60.9078154,16.7646154 C59.6770462,18.98 57.9813538,19.7181538 56.4222769,19.7181538 C54.0158154,19.7181538 52.3748923,17.8584615 52.3748923,15.0692308 C52.3748923,10.5566154 55.3558154,5.74307692 61.9468923,5.74307692 C63.5330462,5.74307692 65.2561231,6.04430769 66.3773538,6.39969231 L64.9552,13.4009231 C64.6268923,15.1236923 64.3807385,17.7492308 64.4355077,19.4172308 L60.7982769,19.4172308 Z" id="Fill-10"></path>
                <path d="M71.8184615,6.04418462 L72.6116923,8.04049231 C73.0218462,9.10695385 73.268,9.76356923 73.4593846,10.2829538 L73.5415385,10.2829538 C74.0338462,9.57218462 74.3892308,8.97033846 74.9636923,8.15003077 L76.4403077,6.04418462 L80.9529231,6.04418462 L75.3190769,12.5254154 L78.4369231,19.4174154 L74.1156923,19.4174154 L73.268,17.2841846 C72.8852308,16.2995692 72.6661538,15.6432615 72.4203077,14.8503385 L72.3381538,14.8503385 C71.9553846,15.4792615 71.5723077,16.1629538 70.9707692,17.0928 L69.3846154,19.4174154 L64.8446154,19.4174154 L70.6424615,12.4983385 L67.4975385,6.04418462 L71.8184615,6.04418462 Z" id="Fill-12"></path>
                <path d="M95.3919077,19.4173846 L96.7045231,9.46261538 C96.9506769,7.71246154 97.3608308,5.00476923 97.7165231,3.22723077 L97.6069846,3.22723077 C96.7592923,5.08692308 95.7472923,7.27461538 94.7356,9.16169231 L89.2657538,19.3081538 L87.5156,19.3081538 L86.1482154,9.38076923 C85.8746769,7.24723077 85.6832923,5.11430769 85.5737538,3.22723077 L85.5189846,3.22723077 C85.1088308,4.92292308 84.5343692,7.71246154 84.0971385,9.46261538 L81.5808308,19.4173846 L79.4476,19.4173846 L84.2337538,0.984769231 L87.1325231,0.984769231 L88.5820615,11.5684615 C88.7734462,13.1275385 88.9922154,14.7955385 89.0196,16.1629231 L89.1017538,16.1629231 C89.6759077,14.7955385 90.4691385,13.1546154 91.2623692,11.6232308 L96.9780615,0.984769231 L99.9316,0.984769231 L97.5796,19.4173846 L95.3919077,19.4173846 Z" id="Fill-14"></path>
                <path d="M111.170923,7.87649231 C110.842615,7.79433846 110.350308,7.68510769 109.584769,7.68510769 C106.166,7.68510769 103.376462,11.2675692 103.349385,14.9324923 C103.349385,16.4091077 103.868769,17.8583385 105.619231,17.8583385 C107.506,17.8583385 109.748769,15.3971077 110.405077,11.8694154 L111.170923,7.87649231 Z M109.694,19.4174154 C109.694,18.6244923 109.830923,17.3663385 109.994923,15.9986462 L109.940154,15.9986462 C108.490923,18.7337231 106.685692,19.7180308 104.798615,19.7180308 C102.474,19.7180308 100.997385,17.8583385 100.997385,15.3426462 C100.997385,10.7478769 104.388462,5.88018462 110.158923,5.88018462 C111.417077,5.88018462 112.811846,6.09895385 113.714308,6.39956923 L112.374308,13.2915692 C111.936462,15.5884923 111.745077,17.9404923 111.799846,19.4174154 L109.694,19.4174154 Z" id="Fill-16"></path>
                <path d="M114.943908,19.4173846 L118.608523,0.000153846154 L120.878369,0.000153846154 L118.553754,12.17 L118.608523,12.17 C119.018985,11.7053846 119.511292,11.2130769 119.839292,10.83 L124.5156,6.18076923 L127.305446,6.18076923 L121.534985,11.6232308 L125.500523,19.4173846 L122.984523,19.4173846 L119.811908,12.8813846 L118.1436,14.3853846 L117.186369,19.4173846 L114.943908,19.4173846 Z" id="Fill-18"></path>
                <path d="M134.032554,7.65775385 C131.872246,7.65775385 130.2584,9.7636 129.711631,11.8420615 C133.267015,11.8694462 136.056554,11.4045231 136.056554,9.35313846 C136.056554,8.25929231 135.235938,7.65775385 134.032554,7.65775385 Z M136.548862,18.6516 C135.564246,19.2260615 133.9504,19.6906769 132.172862,19.6906769 C128.672246,19.6906769 127.141169,17.3116 127.141169,14.3851385 C127.141169,10.3925231 130.0944,5.88021538 134.360862,5.88021538 C136.876862,5.88021538 138.244246,7.38390769 138.244246,9.27098462 C138.244246,12.7442154 134.333785,13.6743692 129.438092,13.5922154 C129.328862,14.1663692 129.410708,15.3971385 129.711631,16.1082154 C130.231323,17.2842154 131.297785,17.8857538 132.665477,17.8857538 C134.224246,17.8857538 135.399938,17.3937538 136.220554,16.9562154 L136.548862,18.6516 Z" id="Fill-20"></path>
                <path d="M139.391908,19.4173846 L141.005446,10.8847692 C141.334062,9.16169231 141.552523,7.41123077 141.689446,6.18076923 L143.685754,6.18076923 C143.576523,7.11061538 143.466985,8.04046154 143.330369,9.05215385 L143.412215,9.05215385 C144.259908,7.24723077 145.682062,5.88015385 147.459908,5.88015385 C147.651292,5.88015385 147.924523,5.90753846 148.088831,5.93492308 L147.651292,8.17738462 C147.514369,8.15 147.2956,8.12261538 147.049754,8.12261538 C145.080523,8.12261538 143.330369,10.5016923 142.755908,13.5921538 L141.662062,19.4173846 L139.391908,19.4173846 Z" id="Fill-22"></path>
            </g>
        </g>
    </g>
</svg>