<?xml version="1.0" encoding="UTF-8"?>
<svg width="41px" height="40px" viewBox="0 0 41 40" version="1.1" xmlns="http://www.w3.org/2000/svg" xmlns:xlink="http://www.w3.org/1999/xlink">
    <!-- Generator: Sketch 50.2 (55047) - http://www.bohemiancoding.com/sketch -->
    <title>Group 33</title>
    <desc>Created with Sketch.</desc>
    <defs></defs>
    <g id="Finals" stroke="none" stroke-width="1" fill="none" fill-rule="evenodd">
        <g id="1c.-FaxMaker-PPC-Landing-Page-(Mobile)" transform="translate(-167.000000, -3551.000000)" fill="#3B5998" fill-rule="nonzero">
            <g id="Group-14" transform="translate(107.000000, 3551.000000)">
                <g id="Group-33" transform="translate(60.500000, 0.000000)">
                    <path d="M1,1 L1,39 L39,39 L39,1 L1,1 Z M0,0 L40,0 L40,40 L0,40 L0,0 Z" id="Rectangle-17"></path>
                    <path d="M17.6206349,27.5 L17.6206349,20.1580952 L15,20.1580952 L15,17.539966 L17.6212245,17.539966 L17.6212245,15.123322 C17.6212245,12.6858957 19.0603628,11.25 21.2343991,11.25 C22.2761678,11.25 23.1260317,11.3614286 23.3870635,11.3960658 L23.3870635,14.1335828 L21.6369274,14.1328458 C20.4545465,14.1328458 20.2333107,14.7193197 20.2333107,15.5436848 L20.2333107,17.539966 L23.2631066,17.539966 L22.8350794,20.1580952 L20.2333107,20.1580952 L20.2333107,27.5 L17.6206349,27.5 Z" id="Shape" stroke="#3B5998" stroke-width="0.5"></path>
                </g>
            </g>
        </g>
    </g>
</svg>