<?xml version="1.0" encoding="UTF-8"?>
<svg width="45px" height="41px" viewBox="0 0 45 41" version="1.1" xmlns="http://www.w3.org/2000/svg" xmlns:xlink="http://www.w3.org/1999/xlink">
    <!-- Generator: Sketch 50.2 (55047) - http://www.bohemiancoding.com/sketch -->
    <title>Group 4</title>
    <desc>Created with Sketch.</desc>
    <defs></defs>
    <g id="Finals" stroke="none" stroke-width="1" fill="none" fill-rule="evenodd">
        <g id="1c.-FaxMaker-PPC-Landing-Page-(Mobile)" transform="translate(-165.000000, -941.000000)" fill-rule="nonzero" stroke="#FFFFFF" stroke-width="0.5">
            <g id="Group-4" transform="translate(166.000000, 942.000000)">
                <path d="M28.4029279,16.9689723 L21.7918396,12.5616891 L23.8069806,8.53075296 C24.0826198,7.9798017 23.9178249,7.31081283 23.4182085,6.95048739 C22.9189192,6.59048898 22.2316197,6.64607461 21.7964172,7.08127701 L14.2629351,14.6147592 C13.9967782,14.8809161 13.8640267,15.2520316 13.9013018,15.6264169 C13.9382499,16.0008022 14.1413007,16.3388933 14.454215,16.5475028 L21.0653032,20.954786 L19.0498352,24.9857222 C18.7745231,25.5366734 18.939318,26.2059893 19.4389343,26.5659877 C19.9424744,26.928929 20.6291199,26.8668039 21.0607256,26.4351981 L28.5942078,18.901716 C28.8603646,18.635559 28.9931161,18.2644436 28.955841,17.8900582 C28.918893,17.5156729 28.7158421,17.1779088 28.4029279,16.9689723 Z M23.8599505,20.084708 C23.7703595,19.8450361 23.6071996,19.631522 23.3806065,19.480133 L17.1216692,15.3076172 L18.9971924,13.4317671 C19.0867833,13.671439 19.2499433,13.8849531 19.4765364,14.0360151 L25.7354736,18.2088579 L23.8599505,20.084708 Z" id="Shape" fill="#0079FF"></path>
                <path d="M41.6015625,14.2472403 L39.0066964,14.2472403 C38.3131845,14.2472403 37.7511161,14.8093087 37.7511161,15.5028207 C37.7511161,16.1960057 38.3131845,16.758401 39.0066964,16.758401 L41.6015625,16.758401 C42.2950744,16.758401 42.8571429,16.1960057 42.8571429,15.5028207 C42.8571429,14.8093087 42.2950744,14.2472403 41.6015625,14.2472403 Z" id="Shape" fill="#0079FF"></path>
                <path d="M0,15.5028207 C0,16.1960057 0.562068415,16.758401 1.25558036,16.758401 L3.85044643,16.758401 C4.54395837,16.758401 5.10602679,16.1960057 5.10602679,15.5028207 C5.10602679,14.8093087 4.54395837,14.2472403 3.85044643,14.2472403 L1.25558036,14.2472403 C0.562068415,14.2472403 0,14.8093087 0,15.5028207 Z" id="Shape" fill="#0079FF"></path>
                <path d="M36.5216936,0.409698465 C36.0315595,-0.0807626116 35.2366857,-0.0807626116 34.7462245,0.409698465 L32.9704285,2.18516761 C32.4799674,2.67562868 32.4799674,3.47050262 32.9704285,3.96096362 C33.4605626,4.45109774 34.2554365,4.45109774 34.7458975,3.96096362 L36.5216936,2.18516761 C37.0121547,1.69503348 37.0121547,0.899832589 36.5216936,0.409698465 Z" id="Shape" fill="#0079FF"></path>
                <path d="M6.33544922,30.5956159 C6.8259103,31.086077 7.62078424,31.086077 8.11124531,30.5956159 L9.88671437,28.8201469 C10.3771754,28.3296857 10.3771754,27.5348119 9.88671437,27.0443508 C9.39658025,26.5542167 8.60137935,26.5542167 8.11124531,27.0443508 L6.33544922,28.8201469 C5.84498814,29.3106079 5.84498814,30.1054818 6.33544922,30.5956159 Z" id="Shape" fill="#0079FF"></path>
                <path d="M8.11124531,0.409698465 C7.62111119,-0.0807626116 6.8259103,-0.0807626116 6.33544922,0.409698465 C5.84498814,0.899832589 5.84498814,1.69503348 6.33544922,2.18516761 L8.11124531,3.96096362 C8.60137935,4.45109774 9.39625329,4.45109774 9.88671437,3.96096362 C10.3771754,3.47050262 10.3771754,2.67562868 9.88671437,2.18516761 L8.11124531,0.409698465 Z" id="Shape" fill="#0079FF"></path>
                <path d="M34.7458975,27.0443508 C34.2557635,26.5542167 33.4605626,26.5542167 32.9704285,27.0443508 C32.4799674,27.5348119 32.4799674,28.3296857 32.9704285,28.8201469 L34.7462245,30.5956159 C35.2363586,31.086077 36.0312326,31.086077 36.5216936,30.5956159 C37.0121547,30.1054818 37.0121547,29.3106079 36.5216936,28.8201469 L34.7458975,27.0443508 Z" id="Shape" fill="#0079FF"></path>
                <path d="M18.4645517,2.00108119 C13.0443028,3.1330654 8.76944406,7.57958546 7.82677785,13.0658831 C6.90503806,18.4305464 9.07778061,23.6912319 13.4968349,26.7948696 C14.5323617,27.5220598 15.1506696,28.8119725 15.1506696,30.2447728 L15.1506696,30.569785 C15.1506696,32.2066171 16.2002563,33.6021424 17.6618304,34.1203962 L17.6618304,35.5921064 C17.6618304,37.6690456 19.3516323,39.3588475 21.4285714,39.3588475 C23.5055106,39.3588475 25.1953125,37.6690456 25.1953125,35.5921064 L25.1953125,34.1203962 C26.6568866,33.6021424 27.7064732,32.2066171 27.7064732,30.569785 L27.7064732,30.1754543 C27.7064732,28.8165501 28.428105,27.4978637 29.686955,26.5584673 C33.0773489,24.0270342 35.2399554,20.0036185 35.2399554,15.5028207 C35.2399554,6.79811752 27.2715978,0.161525223 18.4645517,2.00108119 Z M21.4285714,36.8476867 C20.7363674,36.8476867 20.1729911,36.2843104 20.1729911,35.5921064 L20.1729911,34.336526 L22.6841518,34.336526 L22.6841518,35.5921064 C22.6841518,36.2843104 22.1207755,36.8476867 21.4285714,36.8476867 Z M28.1845093,24.546269 C26.28479,25.9646824 25.1953125,28.0164446 25.1953125,30.1754543 L25.1953125,30.569785 C25.1953125,31.261989 24.6319362,31.8253653 23.9397321,31.8253653 L18.9174107,31.8253653 C18.2252067,31.8253653 17.6618304,31.261989 17.6618304,30.569785 L17.6618304,30.2447728 C17.6618304,27.9948643 16.6442871,25.9368896 14.9400984,24.7398377 C11.3234384,22.1999032 9.54600745,17.8897313 10.3016444,13.4912763 C11.0710144,9.01205876 14.5578657,5.38231984 18.9779009,4.45894512 C26.1922564,2.95224869 32.7287946,8.36072645 32.7287946,15.5028207 C32.7287946,19.0939767 31.0726711,22.3902021 28.1845093,24.546269 Z" id="Shape" fill="#004F80"></path>
            </g>
        </g>
    </g>
</svg>