<?xml version="1.0" encoding="UTF-8"?>
<svg width="40px" height="40px" viewBox="0 0 40 40" version="1.1" xmlns="http://www.w3.org/2000/svg" xmlns:xlink="http://www.w3.org/1999/xlink">
    <!-- Generator: Sketch 50.2 (55047) - http://www.bohemiancoding.com/sketch -->
    <title>Group 31</title>
    <desc>Created with Sketch.</desc>
    <defs></defs>
    <g id="Page-2" stroke="none" stroke-width="1" fill="none" fill-rule="evenodd">
        <g id="1a.-FaxMaker-PPC-Landing-Page" transform="translate(-724.000000, -3202.000000)" fill="#0077B7" fill-rule="nonzero">
            <g id="Group-31" transform="translate(724.000000, 3202.000000)">
                <g id="Group-28">
                    <path d="M1,1 L1,39 L39,39 L39,1 L1,1 Z M0,0 L40,0 L40,40 L0,40 L0,0 Z" id="Rectangle-17"></path>
                </g>
                <path d="M16.25,26.25 L13.75,26.25 L13.75,17.5 L16.25,17.5 L16.25,26.25 L16.25,26.25 Z M15.0009368,16.25 C13.9623075,16.25 13.125,15.4099114 13.125,14.3748297 C13.125,13.3399183 13.9624779,12.5 15.0009368,12.5 C16.0353079,12.5 16.875,13.3400886 16.875,14.3748297 C16.875,15.4099114 16.0353079,16.25 15.0009368,16.25 Z M27.5,26.25 L24.6940461,26.25 L24.6940461,21.5047165 C24.6940461,20.3730691 24.6760127,18.9176145 23.2360083,18.9176145 C21.7757534,18.9176145 21.5528499,20.1505415 21.5528499,21.4235651 L21.5528499,26.25 L18.75,26.25 L18.75,16.4920166 L21.4399199,16.4920166 L21.4399199,17.8260635 L21.4784994,17.8260635 C21.8526167,17.0589586 22.7683247,16.25 24.1335352,16.25 C26.9749645,16.25 27.5,18.2704796 27.5,20.8986366 L27.5,26.25 Z" id="Shape"></path>
            </g>
        </g>
    </g>
</svg>