<?xml version="1.0" encoding="UTF-8"?>
<svg width="40px" height="40px" viewBox="0 0 40 40" version="1.1" xmlns="http://www.w3.org/2000/svg" xmlns:xlink="http://www.w3.org/1999/xlink">
    <!-- Generator: Sketch 50.2 (55047) - http://www.bohemiancoding.com/sketch -->
    <title>Group 32</title>
    <desc>Created with Sketch.</desc>
    <defs></defs>
    <g id="Page-2" stroke="none" stroke-width="1" fill="none" fill-rule="evenodd">
        <g id="1a.-FaxMaker-PPC-Landing-Page" transform="translate(-603.000000, -3202.000000)" fill="#5EA9DD" fill-rule="nonzero">
            <g id="Group-32" transform="translate(603.000000, 3202.000000)">
                <path d="M1,1 L1,39 L39,39 L39,1 L1,1 Z M0,0 L40,0 L40,40 L0,40 L0,0 Z" id="Rectangle-17"></path>
                <path d="M26.6878544,14.6744428 C27.4293916,14.2448995 27.9981222,13.5648213 28.2663801,12.7539958 C27.5727674,13.1518137 26.8039868,13.4408036 25.9864863,13.5963545 C25.3316506,12.92166 24.3986143,12.5 23.3661494,12.5 C21.38295,12.5 19.77559,14.0541622 19.77559,15.9711482 C19.77559,16.2434102 19.8074071,16.5079812 19.868655,16.7623616 C16.8844102,16.6175782 14.2392163,15.2355024 12.4685948,13.1354703 C12.1595713,13.6478843 11.9823898,14.2445149 11.9823898,14.880562 C11.9823898,16.084783 12.6163455,17.1474892 13.5796081,17.7698848 C12.9911906,17.7518109 12.4371754,17.595491 11.9533567,17.3353423 C11.952959,17.3499553 11.952959,17.3645682 11.952959,17.3791811 C11.952959,19.0615911 13.1904452,20.4636634 14.832804,20.7830329 C14.531337,20.8622504 14.2143592,20.9047433 13.8870408,20.9047433 C13.6555714,20.9047433 13.4306643,20.8828239 13.211524,20.8422537 C13.6684971,22.2214454 14.9944746,23.2256999 16.5652449,23.2531953 C15.3367073,24.1838083 13.7886066,24.7387152 12.1064765,24.7387152 C11.8165432,24.7387152 11.5307859,24.7229486 11.25,24.6902618 C12.8386674,25.6752888 14.7262167,26.25 16.7535624,26.25 C23.357002,26.25 26.9682426,20.9603109 26.9682426,16.3731961 C26.9682426,16.2228367 26.9640666,16.0728619 26.9573054,15.924233 C27.6602644,15.4354689 28.2685675,14.824033 28.75,14.127996 C28.1064992,14.4042958 27.4144773,14.5908029 26.6878544,14.6744428 Z" id="Shape"></path>
            </g>
        </g>
    </g>
</svg>